<svg id="Layer_1" data-name="Layer 1" xmlns="http://www.w3.org/2000/svg" viewBox="0 0 112.99 469.26"><defs><style>.cls-1,.cls-10,.cls-11,.cls-12,.cls-15,.cls-2,.cls-3,.cls-7,.cls-8,.cls-9{isolation:isolate;}.cls-1,.cls-3{font-size:28px;}.cls-1,.cls-12{fill:#9b2717;}.cls-1,.cls-11,.cls-12,.cls-3{font-family:Times-Bold, Times;}.cls-1,.cls-11,.cls-12,.cls-3,.cls-8,.cls-9{font-weight:700;}.cls-2,.cls-8{font-size:15px;}.cls-15,.cls-2{font-family:ArialMT, Arial;}.cls-11,.cls-3{fill:#50428d;}.cls-4{letter-spacing:-0.02em;}.cls-5{fill:#fff;}.cls-5,.cls-6{stroke:#000;}.cls-13,.cls-16,.cls-18,.cls-20,.cls-5,.cls-6{stroke-miterlimit:8;}.cls-6{fill:#7c7c7c;}.cls-8,.cls-9{font-family:Arial-BoldMT, Arial;}.cls-9{font-size:18px;}.cls-10,.cls-11,.cls-12{font-size:24.14px;}.cls-10{font-family:Times-Roman, Times;}.cls-13,.cls-16,.cls-18,.cls-20{fill:none;stroke-width:5px;}.cls-13{stroke:#e65d8e;}.cls-14{fill:#e65d8e;}.cls-15{font-size:12px;}.cls-16{stroke:#ffc107;}.cls-17{fill:#ffc107;}.cls-18{stroke:#1e88e5;}.cls-19{fill:#1e88e5;}.cls-20{stroke:#508279;}.cls-21{fill:#508279;}</style></defs><text class="cls-1" transform="translate(3.13 105.58)">+</text><text class="cls-2" transform="translate(28.92 103.55)">activated</text><text class="cls-3" transform="translate(6.45 127.41)">-</text><text class="cls-2" transform="translate(28.84 125.38)">repressed</text><text class="cls-2" transform="translate(29.06 52.62)">observed<tspan class="cls-4" x="61.71" y="0"> </tspan><tspan x="65.6" y="0">TF</tspan></text><circle class="cls-5" cx="11.11" cy="48.62" r="8.5"/><text class="cls-2" transform="translate(28.99 79.95)">predicted<tspan class="cls-4" x="61.71" y="0"> </tspan><tspan x="65.6" y="0">TF</tspan></text><circle class="cls-6" cx="11.11" cy="75.95" r="8.5"/><g class="cls-7"><text class="cls-8" transform="translate(31.58 161.35)">known</text><text class="cls-8" transform="translate(16.99 179.35)">interaction</text></g><g class="cls-7"><text class="cls-8" transform="translate(21.89 337.35)">predicted</text><text class="cls-8" transform="translate(17.31 355.35)">interaction</text></g><text class="cls-9" transform="translate(23.95 15.44)">Legend</text><text class="cls-10" transform="translate(47.61 202.09)">/</text><g class="cls-7"><text class="cls-11" transform="translate(52.57 202.09)"><tspan xml:space="preserve"> -</tspan></text></g><text class="cls-12" transform="translate(28.65 202.09)">+</text><circle class="cls-5" cx="80.29" cy="209.33" r="8.5"/><circle class="cls-5" cx="23.29" cy="209.33" r="8.5"/><line class="cls-13" x1="32.14" y1="209.34" x2="60.37" y2="209.34"/><polygon class="cls-14" points="58.19 216.82 71.14 209.34 58.19 201.86 58.19 216.82"/><text class="cls-15" transform="translate(0.31 228.16)">regulator</text><text class="cls-15" transform="translate(58.45 228.16)">regulated</text><text class="cls-12" transform="translate(27.65 379.42)">+</text><text class="cls-10" transform="translate(46.62 379.42)">/</text><g class="cls-7"><text class="cls-11" transform="translate(51.57 379.42)"><tspan xml:space="preserve"> -</tspan></text></g><circle class="cls-5" cx="22.3" cy="386.67" r="8.5"/><circle class="cls-5" cx="79.3" cy="386.67" r="8.5"/><line class="cls-16" x1="31.15" y1="386.67" x2="59.38" y2="386.67"/><polygon class="cls-17" points="57.19 394.15 70.15 386.68 57.19 379.19 57.19 394.15"/><text class="cls-15" transform="translate(0.93 405.01)">regulator</text><text class="cls-15" transform="translate(59.07 405.16)">regulated</text><line class="cls-18" x1="31.39" y1="269.81" x2="59.63" y2="269.81"/><polygon class="cls-19" points="57.44 277.29 70.39 269.81 57.44 262.33 57.44 277.29"/><text class="cls-10" transform="translate(47.42 261.9)">/</text><g class="cls-7"><text class="cls-11" transform="translate(52.38 261.9)"><tspan xml:space="preserve"> -</tspan></text></g><circle class="cls-6" cx="22.54" cy="269.8" r="8.5"/><circle class="cls-5" cx="79.54" cy="269.8" r="8.5"/><text class="cls-12" transform="translate(28.46 261.9)">+</text><text class="cls-15" transform="translate(0 288.21)">regulator</text><text class="cls-15" transform="translate(58.13 288.36)">regulated</text><circle class="cls-6" cx="23.11" cy="447.14" r="8.5"/><circle class="cls-5" cx="80.11" cy="447.14" r="8.5"/><line class="cls-20" x1="31.96" y1="447.15" x2="60.19" y2="447.15"/><polygon class="cls-21" points="58 454.63 70.96 447.15 58 439.67 58 454.63"/><text class="cls-12" transform="translate(29.02 439.23)">+</text><text class="cls-10" transform="translate(47.99 439.23)">/</text><g class="cls-7"><text class="cls-11" transform="translate(52.94 439.23)"><tspan xml:space="preserve"> -</tspan></text></g><text class="cls-15" transform="translate(2.18 465.21)">regulator</text><text class="cls-15" transform="translate(60.31 465.36)">regulated</text></svg>