<svg id="Layer_1" data-name="Layer 1" xmlns="http://www.w3.org/2000/svg" viewBox="0 0 140.74 532.03"><defs><style>.cls-1,.cls-14,.cls-15,.cls-2,.cls-3,.cls-4,.cls-5{isolation:isolate;}.cls-2,.cls-3{font-size:18px;}.cls-14,.cls-2{font-family:Arial-BoldMT, Arial;font-weight:700;}.cls-15,.cls-3,.cls-4,.cls-5{font-family:ArialMT, Arial;}.cls-4{font-size:10px;}.cls-14,.cls-5{font-size:15px;}.cls-6{fill:#fff;}.cls-12,.cls-6{stroke:#000;}.cls-10,.cls-11,.cls-12,.cls-13,.cls-16,.cls-6,.cls-7,.cls-8,.cls-9{stroke-miterlimit:8;}.cls-10,.cls-11,.cls-12,.cls-13,.cls-16,.cls-7,.cls-8,.cls-9{fill:none;stroke-width:5px;}.cls-7{stroke:#cc03c7;}.cls-8{stroke:#04b72a;}.cls-9{stroke:#ff031c;}.cls-10{stroke:#0423f9;}.cls-11{stroke:#acca33;}.cls-13{stroke:#8e91fb;}.cls-15{font-size:12px;}.cls-16{stroke:#04a5c8;}</style></defs><g class="cls-1"><text class="cls-2" transform="translate(34.86 15.45)">Legend</text><text class="cls-3" transform="translate(98.86 15.45)">*</text></g><g class="cls-1"><text class="cls-4" transform="translate(16.19 516.79)"><tspan xml:space="preserve">TF: transcription factor   </tspan></text><text class="cls-4" transform="translate(29.79 528.79)">*: from STRINGdb</text></g><text class="cls-5" transform="translate(74.58 41.73)">TF</text><circle class="cls-6" cx="56.38" cy="35.13" r="8.5"/><circle class="cls-6" cx="98.88" cy="98.83" r="8.5"/><circle class="cls-6" cx="41.88" cy="98.83" r="8.5"/><line class="cls-7" x1="50.68" y1="98.83" x2="89.68" y2="98.83"/><circle class="cls-6" cx="98.88" cy="228.83" r="8.5"/><circle class="cls-6" cx="41.88" cy="228.83" r="8.5"/><line class="cls-8" x1="50.68" y1="228.83" x2="89.68" y2="228.83"/><circle class="cls-6" cx="98.88" cy="271.83" r="8.5"/><circle class="cls-6" cx="41.88" cy="271.83" r="8.5"/><line class="cls-9" x1="50.68" y1="271.83" x2="89.68" y2="271.83"/><circle class="cls-6" cx="98.88" cy="312.83" r="8.5"/><circle class="cls-6" cx="41.88" cy="312.83" r="8.5"/><line class="cls-10" x1="50.68" y1="312.83" x2="89.68" y2="312.83"/><circle class="cls-6" cx="98.88" cy="384.83" r="8.5"/><circle class="cls-6" cx="41.88" cy="384.83" r="8.5"/><line class="cls-11" x1="50.68" y1="384.83" x2="89.68" y2="384.83"/><circle class="cls-6" cx="98.88" cy="427.83" r="8.5"/><circle class="cls-6" cx="41.88" cy="427.83" r="8.5"/><line class="cls-12" x1="50.68" y1="427.83" x2="89.68" y2="427.83"/><circle class="cls-6" cx="98.88" cy="468.83" r="8.5"/><circle class="cls-6" cx="41.88" cy="468.83" r="8.5"/><line class="cls-13" x1="50.68" y1="468.83" x2="89.68" y2="468.83"/><text class="cls-14" transform="translate(44.54 67.64)">known </text><text class="cls-14" transform="translate(27.86 85.64)">interactions</text><text class="cls-15" transform="translate(0 120.1)">experimentally determined</text><circle class="cls-6" cx="98.88" cy="141.83" r="8.5"/><circle class="cls-6" cx="41.88" cy="141.83" r="8.5"/><line class="cls-16" x1="50.68" y1="141.83" x2="89.68" y2="141.83"/><text class="cls-15" transform="translate(21 162.29)">curated databases</text><text class="cls-15" transform="translate(18.65 249.88)">gene neighborhood</text><text class="cls-15" transform="translate(36.34 292.07)">gene fusions</text><text class="cls-15" transform="translate(17.34 332.14)">gene co-occurrence</text><text class="cls-15" transform="translate(43.02 405.42)">textmining</text><text class="cls-15" transform="translate(33.02 447.61)">co-expression</text><text class="cls-15" transform="translate(24.34 487.68)">protein homology</text><text class="cls-14" transform="translate(36.61 198.36)">predicted</text><text class="cls-14" transform="translate(27.86 216.36)">interactions</text><text class="cls-14" transform="translate(47.45 372.38)">others</text></svg>